<?xml version="1.0" encoding="UTF-8"?>
<svg id="Layer_1" data-name="Layer 1" xmlns="http://www.w3.org/2000/svg" viewBox="0 0 787.9 800.51">
  <defs>
    <style>
      .cls-1 {
        fill: #64ff00;
      }
    </style>
  </defs>
  <path class="cls-1" d="M520.71,202.98c-33.42-34.1-75.7-51.83-126.85-53.2h0s0,0,0,0,0,0,0,0h0c-51.15,1.37-93.43,19.1-126.85,53.2-34.1,33.42-51.83,75.7-53.2,126.86.68,38.88,11.25,72.98,31.71,102.3,5.46,7.5,16.37,22.51,16.37,22.51,12.96,17.05,24.55,34.44,34.78,52.17,6.14,11.59,10.23,23.53,12.28,35.81h50.13c-2.73-19.78-9.21-39.56-19.44-59.34-12.28-21.82-25.58-41.94-39.9-60.36-5.46-6.82-9.89-12.96-13.3-18.41-15-21.82-22.85-46.72-23.53-74.68.68-36.83,13.3-67.86,37.85-93.1,25.23-24.55,56.27-37.17,93.09-37.85,36.83.68,67.86,13.3,93.09,37.85,24.55,25.23,37.17,56.27,37.85,93.1-.68,27.96-8.53,52.86-23.53,74.68-3.41,5.46-7.84,11.59-13.3,18.41-14.32,18.41-27.62,38.53-39.9,60.36-10.23,19.78-16.71,39.56-19.44,59.34h50.13c2.05-12.28,6.14-24.21,12.28-35.81,10.23-17.73,21.82-35.12,34.78-52.17,0,0,10.91-15,16.37-22.51,20.46-29.33,31.03-63.43,31.71-102.3-1.36-51.15-19.1-93.44-53.2-126.86Z"/>
  <circle class="cls-1" cx="393.84" cy="616.48" r="38.37"/>
</svg>